<?xml version="1.0" standalone="no"?>
<!DOCTYPE svg PUBLIC "-//W3C//DTD SVG 20010904//EN"
 "http://www.w3.org/TR/2001/REC-SVG-20010904/DTD/svg10.dtd">
<svg version="1.0" xmlns="http://www.w3.org/2000/svg"
 width="221.626078pt" height="326.597556pt" viewBox="0 0 221.626078 326.597556"
 preserveAspectRatio="xMidYMid meet">
<metadata>
Created by potrace 1.12, written by Peter Selinger 2001-2015
</metadata>
<g transform="translate(-12.968129,334.612047) scale(0.100000,-0.100000)"
fill="#000000" stroke="none">
<path d="M1947 3344 c-3 -4 5 -26 18 -49 18 -30 25 -56 25 -95 0 -62 -17 -173
-32 -213 -21 -54 2 -39 27 19 33 74 43 175 25 249 -12 51 -49 103 -63 89z"/>
<path d="M1615 3313 c4 -10 10 -29 12 -43 2 -14 8 -34 13 -45 4 -11 13 -45 20
-75 10 -47 9 -64 -6 -115 -19 -67 -24 -154 -9 -157 6 -1 23 17 39 40 26 37 30
52 34 132 3 57 9 90 16 90 15 1 66 46 66 60 0 13 -35 -4 -67 -32 l-22 -20 -11
42 c-11 40 -40 101 -62 128 -15 18 -31 15 -23 -5z"/>
<path d="M1458 3305 c-12 -12 4 -43 28 -54 19 -8 24 -8 24 2 0 16 -44 59 -52
52z"/>
<path d="M1876 3286 c-22 -35 -56 -96 -56 -102 0 -3 4 -3 9 0 5 4 11 0 14 -6
3 -8 7 -6 12 7 3 11 16 40 28 65 12 25 23 48 25 53 9 18 -17 4 -32 -17z"/>
<path d="M1140 3290 c0 -13 111 -100 128 -100 6 0 12 -4 12 -10 0 -13 37 -13
45 -1 7 12 -41 48 -118 90 -65 34 -67 35 -67 21z"/>
<path d="M1524 3228 c-40 -36 -84 -99 -84 -123 0 -35 29 -10 82 70 31 47 53
85 48 85 -5 0 -26 -14 -46 -32z"/>
<path d="M1145 3209 c-11 -30 -1 -94 15 -94 21 0 24 34 6 75 -11 27 -16 31
-21 19z"/>
<path d="M1375 3164 c-113 -23 -202 -81 -271 -176 -37 -50 -39 -60 -19 -140 6
-22 0 -37 -30 -78 -43 -59 -34 -66 18 -12 35 35 37 42 37 101 0 68 9 92 49
128 41 38 171 122 229 149 28 13 52 26 52 29 0 6 -34 5 -65 -1z"/>
<path d="M1753 2943 c-33 -6 -28 -23 7 -23 20 0 30 5 30 15 0 8 -3 14 -7 14
-5 -1 -18 -4 -30 -6z"/>
<path d="M2050 2889 c0 -6 22 -39 48 -73 26 -33 56 -74 66 -91 10 -16 30 -42
43 -57 14 -14 24 -29 23 -32 -2 -6 29 -88 66 -173 49 -117 15 -425 -76 -673
-17 -47 -37 -103 -45 -125 -7 -22 -34 -78 -59 -125 -50 -94 -57 -116 -28 -101
21 11 146 293 172 386 9 33 20 68 23 78 14 35 18 54 42 167 19 91 23 137 20
220 -4 123 -7 146 -22 181 -7 15 -15 43 -18 63 -4 20 -11 39 -16 42 -5 3 -9
12 -9 20 0 9 -11 30 -25 48 -14 18 -25 38 -25 44 0 6 -3 12 -7 14 -5 2 -20 21
-36 43 -15 22 -43 58 -62 80 -19 22 -38 48 -41 58 -6 19 -34 24 -34 6z"/>
<path d="M1770 2825 c0 -8 40 -54 88 -102 72 -73 182 -217 182 -239 0 -3 6
-20 14 -37 39 -89 41 -103 41 -252 0 -151 -2 -161 -47 -300 -46 -139 -159
-342 -335 -603 -46 -68 -83 -127 -83 -130 0 -3 -8 -14 -17 -24 -16 -17 -16
-20 0 -35 15 -15 19 -15 31 -3 19 20 216 316 216 325 0 4 10 21 23 38 30 43
79 134 127 237 22 47 45 93 50 102 6 10 10 26 10 36 0 10 4 22 8 27 11 14 31
76 44 137 14 69 22 336 10 351 -5 7 -12 29 -16 49 -7 38 -42 111 -88 183 -14
22 -63 77 -109 122 -46 45 -94 94 -106 108 -24 28 -43 33 -43 10z"/>
<path d="M1305 2800 c-4 -6 15 -10 49 -10 31 0 56 5 56 10 0 6 -22 10 -49 10
-28 0 -53 -4 -56 -10z"/>
<path d="M1657 2753 c-4 -3 -7 -25 -7 -47 0 -23 -8 -63 -18 -90 -15 -43 -24
-53 -67 -74 -77 -39 -162 -58 -301 -66 l-86 -5 -49 46 c-58 54 -55 28 4 -37
l38 -42 87 5 c146 9 292 28 325 42 102 43 153 153 111 241 -16 34 -25 40 -37
27z"/>
<path d="M1000 2640 c0 -5 11 -10 25 -10 14 0 25 5 25 10 0 6 -11 10 -25 10
-14 0 -25 -4 -25 -10z"/>
<path d="M1419 2325 c-154 -192 -230 -462 -244 -860 -9 -229 18 -633 46 -700
4 -11 10 -38 14 -60 12 -85 18 -105 27 -105 6 0 8 13 4 33 -54 259 -60 678
-17 1007 13 97 30 201 40 240 5 19 14 53 19 75 25 98 44 161 53 177 5 10 9 23
9 30 0 7 23 58 50 112 27 55 48 101 47 103 -2 2 -24 -22 -48 -52z"/>
<path d="M1059 2008 c-43 -52 -92 -106 -215 -238 -343 -368 -528 -619 -629
-855 -9 -22 -21 -49 -26 -60 -5 -11 -20 -64 -34 -118 -30 -118 -34 -251 -8
-329 34 -104 125 -201 216 -228 23 -7 54 -17 68 -22 33 -12 189 -5 247 11 88
24 202 102 202 138 0 7 3 13 8 13 4 0 15 18 25 41 52 121 44 246 -24 346 -47
67 -161 120 -243 111 -74 -9 -96 -50 -55 -102 18 -23 27 -26 85 -26 72 0 94
-8 141 -53 76 -71 65 -273 -17 -347 -60 -53 -161 -90 -249 -90 -150 0 -274 79
-342 218 -32 64 -33 72 -34 182 0 107 11 174 36 222 5 10 9 23 9 28 0 26 85
182 143 261 88 123 187 239 392 459 93 99 201 230 257 310 53 76 103 168 96
175 -3 3 -25 -19 -49 -47z"/>
<path d="M2142 1347 c-38 -45 -72 -479 -53 -662 13 -129 20 -139 119 -186 83
-39 84 -40 78 -71 -10 -51 -20 -57 -86 -51 -38 4 -60 2 -60 -4 0 -14 29 -37
37 -30 3 4 12 2 19 -4 19 -16 63 1 88 35 50 65 37 96 -59 140 -100 46 -107 60
-113 204 -6 167 12 382 44 527 26 116 25 115 10 115 -7 0 -18 -6 -24 -13z"/>
<path d="M1878 1178 c-52 -83 -63 -163 -63 -479 0 -270 1 -288 19 -308 23 -25
58 -43 133 -66 62 -20 76 -34 67 -69 -11 -47 -44 -57 -134 -42 -40 6 -43 5
-27 -7 30 -24 102 -30 140 -12 32 15 57 50 57 79 0 24 -55 64 -120 86 -74 26
-87 39 -95 95 -18 130 6 528 43 703 10 46 2 54 -20 20z"/>
<path d="M1266 563 c29 -124 127 -352 176 -408 31 -36 113 -75 157 -75 43 0
119 25 143 47 35 31 2 89 -75 133 -53 30 -92 39 -85 19 2 -6 26 -18 53 -28 57
-19 96 -62 79 -89 -18 -28 -63 -44 -128 -46 -91 -2 -111 17 -187 172 -34 70
-65 136 -69 147 -11 31 -31 78 -41 97 -5 10 -9 27 -9 38 0 11 -5 20 -10 20 -6
0 -8 -11 -4 -27z"/>
</g>
</svg>
